HIERARCHY
ROOT RootJoint
{
    OFFSET   0.000000   0.000000   0.000000
    CHANNELS 6 Xposition Yposition Zposition Xrotation Yrotation Zrotation
    JOINT pelvis_lowerback
    {
        OFFSET   0.000000   0.093605   0.000000
        CHANNELS 3 Xrotation Yrotation Zrotation
        JOINT lowerback_torso
        {
            OFFSET   0.000000   0.100000   0.000000
            CHANNELS 3 Xrotation Yrotation Zrotation
            JOINT torso_head
            {
                OFFSET   0.000000   0.282350   0.000000
                CHANNELS 3 Xrotation Yrotation Zrotation
                End Site
                {
                    OFFSET   0.000000   0.192650   0.000000
                }
            }
            JOINT rTorso_Clavicle
            {
                OFFSET  -0.001000   0.157500   0.000000
                CHANNELS 3 Xrotation Yrotation Zrotation
                JOINT rShoulder
                {
                    OFFSET  -0.117647   0.000000   0.000000
                    CHANNELS 3 Xrotation Yrotation Zrotation
                    JOINT rElbow
                    {
                        OFFSET  -0.245000   0.000000   0.000000
                        CHANNELS 3 Xrotation Yrotation Zrotation
                        JOINT rWrist
                        {
                            OFFSET  -0.240000   0.000000   0.000000
                            CHANNELS 3 Xrotation Yrotation Zrotation
                            End Site
                            {
                                OFFSET  -0.116353  -0.002500   0.000000
                            }
                        }
                    }
                }
            }
            JOINT lTorso_Clavicle
            {
                OFFSET   0.001000   0.157500   0.000000
                CHANNELS 3 Xrotation Yrotation Zrotation
                JOINT lShoulder
                {
                    OFFSET   0.117647   0.000000   0.000000
                    CHANNELS 3 Xrotation Yrotation Zrotation
                    JOINT lElbow
                    {
                        OFFSET   0.245000   0.000000   0.000000
                        CHANNELS 3 Xrotation Yrotation Zrotation
                        JOINT lWrist
                        {
                            OFFSET   0.240000   0.000000   0.000000
                            CHANNELS 3 Xrotation Yrotation Zrotation
                            End Site
                            {
                                OFFSET   0.116353  -0.002500   0.000000
                            }
                        }
                    }
                }
            }
        }
    }
    JOINT rHip
    {
        OFFSET  -0.100000  -0.051395   0.000000
        CHANNELS 3 Xrotation Yrotation Zrotation
        JOINT rKnee
        {
            OFFSET   0.000000  -0.410000   0.000000
            CHANNELS 3 Xrotation Yrotation Zrotation
            JOINT rAnkle
            {
                OFFSET   0.000000  -0.390000   0.000000
                CHANNELS 3 Xrotation Yrotation Zrotation
                JOINT rToeJoint
                {
                    OFFSET   0.000000  -0.050000   0.130000
                    CHANNELS 3 Xrotation Yrotation Zrotation
                    End Site
                    {
                        OFFSET  -0.010000   0.002000   0.060000
                    }
                }
            }
        }
    }
    JOINT lHip
    {
        OFFSET   0.100000  -0.051395   0.000000
        CHANNELS 3 Xrotation Yrotation Zrotation
        JOINT lKnee
        {
            OFFSET   0.000000  -0.410000   0.000000
            CHANNELS 3 Xrotation Yrotation Zrotation
            JOINT lAnkle
            {
                OFFSET   0.000000  -0.390000   0.000000
                CHANNELS 3 Xrotation Yrotation Zrotation
                JOINT lToeJoint
                {
                    OFFSET   0.000000  -0.050000   0.130000
                    CHANNELS 3 Xrotation Yrotation Zrotation
                    End Site
                    {
                        OFFSET   0.010000   0.002000   0.060000
                    }
                }
            }
        }
    }
}
MOTION
Frames: 5
Frame Time:   0.008333
 -2.287167   0.919358   5.228160 -13.113892  24.679614   2.487538   8.569201  -2.488134   1.798250   4.801242  -0.970572   2.262317   0.763275   2.908513  -0.255261   4.425239  -0.434066   3.667312  10.992055  10.835746  53.288817  -0.002892  50.043212   0.005440   2.074086   2.309474  -8.961750   4.511494  -4.288491  -1.354835  11.270777 -19.675138 -48.789215   0.093285 -86.759698   0.097013   3.640808  -6.266589   8.953131 -12.652950  -6.024880  -8.955962  59.099349  -0.039382  -0.052426  -0.638787 -11.972290   8.159025  -3.571291   0.004853   0.007015  14.097417   0.556353  -1.053429   7.268678   0.000209  -0.008461 -10.063231   5.442227   8.010705   0.064300  -0.000036  -0.000023
 -2.285688   0.919312   5.233067 -13.003857  25.254080   2.443261   8.449614  -2.577629   1.823724   4.781545  -1.025240   2.235810   0.727350   2.955817  -0.255242   4.496818  -0.478302   3.556051  11.265326  11.006241  53.272564  -0.002938  49.890285   0.005645   2.080379   2.376463  -8.916807   4.524201  -4.403340  -1.381850  11.074041 -19.778319 -48.882510   0.081999 -86.241340   0.086174   3.624014  -6.379515   9.028623 -12.631154  -5.496726  -8.665829  56.328482  -0.046379  -0.065949  -1.017227 -11.708889   8.121111  -3.465315   0.003917   0.007094  14.368263   0.455226  -0.834216   7.058563   0.000250  -0.007621 -10.226237   4.989820   7.866545   0.059707  -0.000030  -0.000018
 -2.284230   0.919126   5.237912 -12.856789  25.767828   2.430640   8.332007  -2.648058   1.793901   4.747201  -1.070391   2.185558   0.686101   3.001577  -0.255356   4.565958  -0.511362   3.451362  11.522259  11.171621  53.262356  -0.002892  49.748103   0.005673   2.088790   2.436151  -8.824134   4.532509  -4.518195  -1.401652  10.889152 -19.872407 -48.962733   0.071064 -85.742310   0.075550   3.595251  -6.407008   9.092733 -12.624232  -4.933903  -8.463120  53.412142  -0.051027  -0.077591  -1.382381 -11.459465   8.085378  -3.355010   0.003118   0.007196  14.591183   0.370817  -0.678222   6.881391   0.000271  -0.006763 -10.406543   4.571150   7.725243   0.054385  -0.000026  -0.000015
 -2.282802   0.918846   5.242760 -12.706808  26.233910   2.438830   8.231190  -2.709464   1.738542   4.717546  -1.110111   2.118930   0.647008   3.044457  -0.258530   4.627895  -0.538433   3.355116  11.759799  11.328325  53.252963  -0.002772  49.616257   0.005549   2.097602   2.495584  -8.724066   4.538800  -4.627556  -1.420565  10.715679 -19.958987 -49.035739   0.060674 -85.273284   0.065356   3.563562  -6.406395   9.155966 -12.649688  -4.384537  -8.321076  50.592016  -0.051972  -0.085171  -1.726500 -11.226407   8.052377  -3.253329   0.002444   0.007096  14.809198   0.296825  -0.554177   6.720952   0.000285  -0.005970 -10.601127   4.184118   7.587402   0.049450  -0.000022  -0.000012
 -2.281411   0.918507   5.247654 -12.561831  26.666828   2.453798   8.145579  -2.767208   1.674140   4.696499  -1.147972   2.045614   0.611686   3.084350  -0.263327   4.684622  -0.562916   3.266193  11.980726  11.474956  53.243410  -0.002610  49.493290   0.005324   2.106197   2.553170  -8.627552   4.545221  -4.731103  -1.441430  10.553830 -20.040047 -49.104943   0.051211 -84.834126   0.055998   3.531682  -6.396570   9.213778 -12.704244  -3.863937  -8.210898  47.931129  -0.050095  -0.089070  -2.048593 -11.008501   8.022331  -3.162408   0.001886   0.006817  15.032889   0.228205  -0.438667   6.571957   0.000299  -0.005263 -10.809238   3.823758   7.453632   0.045851  -0.000018  -0.000009
